<?xml version="1.0" standalone="no"?>
<!DOCTYPE svg PUBLIC "-//W3C//DTD SVG 20010904//EN"
 "http://www.w3.org/TR/2001/REC-SVG-20010904/DTD/svg10.dtd">
<svg version="1.0" xmlns="http://www.w3.org/2000/svg"
 width="631.000000pt" height="631.000000pt" viewBox="0 0 631.000000 631.000000"
 preserveAspectRatio="xMidYMid meet">
<metadata>
Created by potrace 1.11, written by Peter Selinger 2001-2013
</metadata>
<g transform="translate(0.000000,631.000000) scale(0.100000,-0.100000)"
fill="#000000" stroke="none">
<path d="M990 5979 c0 -310 1 -330 18 -325 272 81 830 189 1167 225 709 78
1602 113 2302 93 435 -13 717 -30 1035 -62 109 -11 205 -20 213 -20 13 0 15
30 15 210 l0 210 -2375 0 -2375 0 0 -331z"/>
<path d="M4830 5733 c-970 -31 -1892 -160 -2700 -379 -338 -91 -891 -283
-1112 -385 l-28 -12 0 -1704 0 -1703 2375 0 2375 0 0 2088 0 2089 -182 6
c-169 7 -532 6 -728 0z m-1042 -543 c284 -25 544 -120 732 -266 64 -49 186
-171 179 -178 -3 -3 -34 4 -69 15 -97 30 -402 104 -510 124 -145 26 -483 32
-629 11 -470 -69 -851 -288 -1066 -611 -147 -220 -202 -433 -192 -739 6 -190
25 -279 90 -431 125 -291 320 -499 609 -650 355 -185 700 -201 1026 -45 204
97 369 232 470 385 88 132 141 321 127 452 -28 260 -184 503 -394 612 -101 52
-185 73 -296 74 -322 1 -568 -230 -553 -518 4 -68 10 -95 37 -149 29 -60 37
-67 94 -95 102 -50 176 -65 330 -65 157 -1 158 -5 23 -57 -115 -44 -215 -62
-312 -55 -247 18 -425 159 -510 406 -29 83 -27 290 4 385 67 213 246 403 464
493 281 117 631 67 887 -125 93 -69 270 -247 331 -331 159 -218 238 -433 247
-667 6 -151 -13 -268 -66 -400 -153 -383 -538 -699 -988 -812 -97 -25 -126
-27 -288 -28 -153 0 -196 3 -285 23 -279 63 -523 182 -750 366 -98 79 -286
270 -365 371 -151 193 -263 429 -312 658 -14 65 -18 128 -18 302 1 190 4 234
24 325 57 265 180 496 364 687 302 313 708 489 1229 532 148 12 209 12 336 1z"/>
<path d="M1370 1289 c-229 -40 -395 -175 -466 -377 -91 -262 -37 -572 128
-736 119 -117 258 -167 468 -169 177 -1 292 33 414 121 44 32 126 124 126 141
0 7 -79 113 -100 135 -4 4 -31 -10 -59 -32 -97 -77 -243 -131 -353 -132 -55 0
-137 20 -188 45 -137 70 -211 251 -182 446 30 206 141 317 328 327 97 5 142
-7 288 -80 54 -27 99 -48 100 -46 1 2 26 43 55 93 l53 90 -48 43 c-54 49 -132
91 -214 117 -66 20 -270 28 -350 14z"/>
<path d="M2230 656 l0 -616 135 0 135 0 0 200 0 200 70 0 71 0 130 -200 131
-200 165 0 164 0 -19 28 c-10 15 -79 115 -152 221 l-133 195 24 15 c152 100
205 201 197 380 -5 120 -37 199 -108 265 -110 103 -172 117 -527 123 l-283 5
0 -616z m530 366 c44 -21 60 -36 78 -72 41 -83 24 -221 -36 -273 -37 -33 -93
-46 -199 -47 l-103 0 0 216 0 217 103 -7 c81 -6 113 -12 157 -34z"/>
<path d="M3470 655 l0 -617 338 4 c305 4 344 7 415 26 277 76 417 271 417 582
0 318 -146 518 -431 591 -75 19 -118 22 -411 26 l-328 5 0 -617z m684 345
c119 -46 182 -146 193 -306 14 -193 -45 -321 -177 -383 -52 -24 -66 -26 -237
-29 l-183 -4 0 377 0 377 173 -4 c149 -4 180 -8 231 -28z"/>
<path d="M4890 656 l0 -616 130 0 130 0 0 190 0 190 118 0 c202 0 320 38 421
135 81 77 112 149 119 272 9 183 -52 306 -190 378 -97 51 -143 58 -445 62
l-283 5 0 -616z m494 381 c181 -53 180 -341 -1 -395 -22 -7 -84 -12 -137 -12
l-96 0 0 208 c0 115 3 212 8 216 9 11 176 -2 226 -17z"/>
</g>
</svg>
